<?xml version="1.0" encoding="iso-8859-1"?>
<!-- Generator: Adobe Illustrator 18.0.0, SVG Export Plug-In . SVG Version: 6.00 Build 0)  -->
<!DOCTYPE svg PUBLIC "-//W3C//DTD SVG 1.1//EN" "http://www.w3.org/Graphics/SVG/1.1/DTD/svg11.dtd">
<svg version="1.1" id="Capa_1" xmlns="http://www.w3.org/2000/svg" xmlns:xlink="http://www.w3.org/1999/xlink" x="0px" y="0px"
	 viewBox="0 0 60 60" style="enable-background:new 0 0 60 60;" xml:space="preserve">
<g>
	<path d="M55.849,47.834c-0.429-4.107-3.852-7.332-7.953-7.332c-2.564,0-4.984,1.286-6.48,3.402
		c-0.291-0.051-0.586-0.076-0.883-0.076c-2.32,0-4.381,1.577-5.066,3.813c-1.907,1.131-3.116,3.241-3.116,5.502
		c0,3.507,2.785,6.359,6.208,6.359h10.774c0.06,0,0.118-0.004,0.171-0.008c0.062,0.004,0.124,0.008,0.188,0.008h4.31
		c3.225,0,5.849-2.687,5.849-5.989C59.85,50.913,58.208,48.64,55.849,47.834z M54.001,57.502l-4.352-0.003l-0.17-0.006
		l-10.922,0.009c-2.32,0-4.208-1.956-4.208-4.359c0-1.665,0.949-3.21,2.417-3.935l0.435-0.214l0.102-0.475
		c0.331-1.56,1.689-2.691,3.229-2.691c0.345,0,0.688,0.057,1.02,0.168l0.777,0.261l0.408-0.711c1.096-1.906,3.024-3.044,5.158-3.044
		c3.265,0,5.955,2.747,5.998,6.123l0.011,0.813l0.799,0.155c1.823,0.354,3.146,2.002,3.146,3.919
		C57.85,55.712,56.123,57.502,54.001,57.502z"/>
	<path d="M0.835,21.498C0.314,22.238,0,23.133,0,24.106V35.89c0,0.974,0.314,1.868,0.835,2.608h42.569
		c1.403-0.643,2.93-0.996,4.491-0.996c1.577,0,3.097,0.357,4.481,0.996h6.788C59.686,37.758,60,36.863,60,35.89V24.106
		c0-0.974-0.314-1.868-0.835-2.608H0.835z M10.5,34.498c-2.481,0-4.5-2.019-4.5-4.5s2.019-4.5,4.5-4.5s4.5,2.019,4.5,4.5
		S12.981,34.498,10.5,34.498z M34,29.498c-0.552,0-1-0.448-1-1s0.448-1,1-1s1,0.448,1,1S34.552,29.498,34,29.498z M38,29.498
		c-0.552,0-1-0.448-1-1s0.448-1,1-1s1,0.448,1,1S38.552,29.498,38,29.498z M42,29.498c-0.552,0-1-0.448-1-1s0.448-1,1-1s1,0.448,1,1
		S42.552,29.498,42,29.498z M46,29.498c-0.552,0-1-0.448-1-1s0.448-1,1-1s1,0.448,1,1S46.552,29.498,46,29.498z M50,29.498
		c-0.552,0-1-0.448-1-1s0.448-1,1-1s1,0.448,1,1S50.552,29.498,50,29.498z"/>
	<path d="M55.392,0.498H4.608C2.067,0.498,0,2.565,0,5.106V16.89c0,0.974,0.314,1.868,0.835,2.608h58.329
		C59.686,18.758,60,17.863,60,16.89V5.106C60,2.565,57.933,0.498,55.392,0.498z M10.5,15.498c-2.481,0-4.5-2.019-4.5-4.5
		s2.019-4.5,4.5-4.5s4.5,2.019,4.5,4.5S12.981,15.498,10.5,15.498z M34,10.498c-0.552,0-1-0.448-1-1s0.448-1,1-1s1,0.448,1,1
		S34.552,10.498,34,10.498z M36,13.498c-0.552,0-1-0.448-1-1s0.448-1,1-1s1,0.448,1,1S36.552,13.498,36,13.498z M38,10.498
		c-0.552,0-1-0.448-1-1s0.448-1,1-1s1,0.448,1,1S38.552,10.498,38,10.498z M40,13.498c-0.552,0-1-0.448-1-1s0.448-1,1-1s1,0.448,1,1
		S40.552,13.498,40,13.498z M42,10.498c-0.552,0-1-0.448-1-1s0.448-1,1-1s1,0.448,1,1S42.552,10.498,42,10.498z M44,13.498
		c-0.552,0-1-0.448-1-1s0.448-1,1-1s1,0.448,1,1S44.552,13.498,44,13.498z M46,10.498c-0.552,0-1-0.448-1-1s0.448-1,1-1s1,0.448,1,1
		S46.552,10.498,46,10.498z M48,13.498c-0.552,0-1-0.448-1-1s0.448-1,1-1s1,0.448,1,1S48.552,13.498,48,13.498z M50,10.498
		c-0.552,0-1-0.448-1-1s0.448-1,1-1s1,0.448,1,1S50.552,10.498,50,10.498z M52,13.498c-0.552,0-1-0.448-1-1s0.448-1,1-1s1,0.448,1,1
		S52.552,13.498,52,13.498z"/>
	<path d="M33.008,45.691c1.305-2.82,4.02-4.68,7.063-4.851c0.117-0.121,0.246-0.228,0.368-0.343H0.835
		C0.314,41.238,0,42.133,0,43.106V54.89c0,2.541,2.067,4.608,4.608,4.608h27.209c-1.526-1.671-2.468-3.901-2.468-6.355
		C29.35,50.229,30.712,47.465,33.008,45.691z M10.5,53.498c-2.481,0-4.5-2.019-4.5-4.5s2.019-4.5,4.5-4.5s4.5,2.019,4.5,4.5
		S12.981,53.498,10.5,53.498z"/>
</g>
<g>
</g>
<g>
</g>
<g>
</g>
<g>
</g>
<g>
</g>
<g>
</g>
<g>
</g>
<g>
</g>
<g>
</g>
<g>
</g>
<g>
</g>
<g>
</g>
<g>
</g>
<g>
</g>
<g>
</g>
</svg>
