<?xml version="1.0" encoding="UTF-8" standalone="no"?>
<!-- Generator: Adobe Illustrator 17.1.0, SVG Export Plug-In . SVG Version: 6.00 Build 0)  -->

<svg
   xmlns:dc="http://purl.org/dc/elements/1.1/"
   xmlns:cc="http://creativecommons.org/ns#"
   xmlns:rdf="http://www.w3.org/1999/02/22-rdf-syntax-ns#"
   xmlns:svg="http://www.w3.org/2000/svg"
   xmlns="http://www.w3.org/2000/svg"
   xmlns:sodipodi="http://sodipodi.sourceforge.net/DTD/sodipodi-0.dtd"
   xmlns:inkscape="http://www.inkscape.org/namespaces/inkscape"
   version="1.1"
   id="Capa_1"
   x="0px"
   y="0px"
   viewBox="0 0 362.001 362.001"
   style="enable-background:new 0 0 362.001 362.001;"
   xml:space="preserve"
   sodipodi:docname="refresh.svg"
   inkscape:version="0.92.4 5da689c313, 2019-01-14"><metadata
   id="metadata39"><rdf:RDF><cc:Work
       rdf:about=""><dc:format>image/svg+xml</dc:format><dc:type
         rdf:resource="http://purl.org/dc/dcmitype/StillImage" /></cc:Work></rdf:RDF></metadata><defs
   id="defs37" /><sodipodi:namedview
   pagecolor="#ffffff"
   bordercolor="#666666"
   borderopacity="1"
   objecttolerance="10"
   gridtolerance="10"
   guidetolerance="10"
   inkscape:pageopacity="0"
   inkscape:pageshadow="2"
   inkscape:window-width="754"
   inkscape:window-height="480"
   id="namedview35"
   showgrid="false"
   inkscape:zoom="0.65193189"
   inkscape:cx="181.0005"
   inkscape:cy="181.0005"
   inkscape:window-x="48"
   inkscape:window-y="28"
   inkscape:window-maximized="0"
   inkscape:current-layer="Capa_1" />
<path
   d="M181,0C81.196,0,0,81.196,0,181.001c0,99.804,81.196,181,181,181s181-81.196,181-181C362.001,81.196,280.805,0,181,0z   M290.213,221.115c-3.505,5.256-9.208,8.394-15.254,8.394c-6.046,0-11.749-3.138-15.253-8.394l-22.685-34.018  c-4.596-6.893-2.734-16.206,4.158-20.802c5.496-3.666,12.525-3.213,17.48,0.611c-6.723-38.305-40.209-67.514-80.411-67.514  c-45.03,0-81.664,36.635-81.664,81.664s36.634,81.663,81.664,81.663c8.284,0,15,6.716,15,15s-6.716,15-15,15  c-61.572,0-111.664-50.092-111.664-111.663S116.676,69.394,178.248,69.394c57.429,0,104.864,43.581,110.988,99.406  c4.894-5.497,13.204-6.706,19.503-2.504c6.893,4.596,8.754,13.909,4.158,20.802L290.213,221.115z"
   id="path2" />
<g
   id="g4">
</g>
<g
   id="g6">
</g>
<g
   id="g8">
</g>
<g
   id="g10">
</g>
<g
   id="g12">
</g>
<g
   id="g14">
</g>
<g
   id="g16">
</g>
<g
   id="g18">
</g>
<g
   id="g20">
</g>
<g
   id="g22">
</g>
<g
   id="g24">
</g>
<g
   id="g26">
</g>
<g
   id="g28">
</g>
<g
   id="g30">
</g>
<g
   id="g32">
</g>
<path
   style="fill:#ffffff;stroke:#ffffff;stroke-width:1.53390253"
   d="M 154.46399,359.38033 C 131.08059,356.01072 103.39124,345.29687 81.571913,331.17619 65.619662,320.85246 38.470002,292.98552 28.252921,276.44853 -17.090874,203.0567 -5.054195,109.6299 57.386633,50.317217 84.21812,24.829928 117.97662,8.4444687 155.22456,2.8293459 246.46352,-10.924916 333.6908,48.257271 356.35806,139.29492 c 4.01064,16.10777 5.49796,49.60326 2.9702,66.89078 -5.69098,38.92079 -23.09846,73.73791 -50.63698,101.28028 -28.14783,28.15178 -59.86736,44.61175 -98.82425,51.28216 -14.59341,2.49875 -40.40606,2.79329 -55.40304,0.63219 z m 31.22254,-67.97719 c 8.59996,-4.44721 10.43617,-16.40977 3.67374,-23.93362 -3.81807,-4.24796 -5.45701,-4.81981 -17.2764,-6.02794 -29.78095,-3.04411 -52.77787,-18.62287 -65.75038,-44.54116 -16.131056,-32.22886 -10.289464,-67.1293 15.49828,-92.59405 25.77587,-25.453034 59.93035,-31.034252 92.95913,-15.19055 17.02565,8.16709 35.13197,29.77668 40.83946,48.74116 l 1.94388,6.45905 -6.46873,-0.72911 c -5.57239,-0.6281 -7.18512,-0.089 -11.63879,3.89033 -4.23716,3.78589 -5.17008,5.72518 -5.17008,10.74723 0,5.14351 2.14536,9.34832 13.3565,26.17812 7.34609,11.02768 15.21404,21.26743 17.48436,22.755 5.30267,3.47444 14.1955,3.45971 19.52504,-0.0324 2.29748,-1.50537 10.35369,-12.06852 17.9027,-23.47368 15.91229,-24.04053 16.63513,-27.10415 8.34976,-35.38952 -4.6435,-4.6435 -6.15824,-5.28477 -11.1208,-4.70804 -3.15979,0.36721 -6.6859,0.95711 -7.83577,1.31087 -1.48388,0.45651 -2.87364,-2.61609 -4.78822,-10.58614 -7.34831,-30.58992 -29.98718,-59.052574 -58.268,-73.257224 -27.58975,-13.857544 -59.36272,-15.958888 -87.90286,-5.81356 -26.89544,9.56068 -50.985241,30.993144 -63.014754,56.063634 -8.305171,17.30865 -11.728809,31.91226 -11.69337,49.87835 0.07877,39.93259 20.375624,75.76377 54.586414,96.36442 21.10406,12.70822 53.61767,19.676 64.80889,13.8888 z"
   id="path41"
   inkscape:connector-curvature="0" /></svg>