<?xml version="1.0" encoding="UTF-8" standalone="no"?>
<!-- Generator: Adobe Illustrator 19.0.0, SVG Export Plug-In . SVG Version: 6.00 Build 0)  -->

<svg
   xmlns:dc="http://purl.org/dc/elements/1.1/"
   xmlns:cc="http://creativecommons.org/ns#"
   xmlns:rdf="http://www.w3.org/1999/02/22-rdf-syntax-ns#"
   xmlns:svg="http://www.w3.org/2000/svg"
   xmlns="http://www.w3.org/2000/svg"
   xmlns:sodipodi="http://sodipodi.sourceforge.net/DTD/sodipodi-0.dtd"
   xmlns:inkscape="http://www.inkscape.org/namespaces/inkscape"
   version="1.1"
   id="Capa_1"
   x="0px"
   y="0px"
   viewBox="0 0 60 60"
   style="enable-background:new 0 0 60 60;"
   xml:space="preserve"
   sodipodi:docname="server.svg"
   inkscape:version="0.92.4 5da689c313, 2019-01-14"><metadata
   id="metadata45"><rdf:RDF><cc:Work
       rdf:about=""><dc:format>image/svg+xml</dc:format><dc:type
         rdf:resource="http://purl.org/dc/dcmitype/StillImage" /></cc:Work></rdf:RDF></metadata><defs
   id="defs43" /><sodipodi:namedview
   pagecolor="#ffffff"
   bordercolor="#666666"
   borderopacity="1"
   objecttolerance="10"
   gridtolerance="10"
   guidetolerance="10"
   inkscape:pageopacity="0"
   inkscape:pageshadow="2"
   inkscape:window-width="1872"
   inkscape:window-height="1024"
   id="namedview41"
   showgrid="false"
   inkscape:zoom="3.9333333"
   inkscape:cx="30"
   inkscape:cy="30"
   inkscape:window-x="48"
   inkscape:window-y="28"
   inkscape:window-maximized="1"
   inkscape:current-layer="Capa_1" />
<g
   id="g8">
	<path
   d="M0,24.108v11.783c0,0.974,0.314,1.868,0.835,2.608h58.329C59.686,37.76,60,36.865,60,35.892V24.108   c0-0.974-0.314-1.868-0.835-2.608H0.835C0.314,22.24,0,23.135,0,24.108z M52,30.5c0.552,0,1,0.448,1,1s-0.448,1-1,1s-1-0.448-1-1   S51.448,30.5,52,30.5z M50,27.5c0.552,0,1,0.448,1,1s-0.448,1-1,1s-1-0.448-1-1S49.448,27.5,50,27.5z M48,30.5c0.552,0,1,0.448,1,1   s-0.448,1-1,1s-1-0.448-1-1S47.448,30.5,48,30.5z M46,27.5c0.552,0,1,0.448,1,1s-0.448,1-1,1s-1-0.448-1-1S45.448,27.5,46,27.5z    M44,30.5c0.552,0,1,0.448,1,1s-0.448,1-1,1s-1-0.448-1-1S43.448,30.5,44,30.5z M42,27.5c0.552,0,1,0.448,1,1s-0.448,1-1,1   s-1-0.448-1-1S41.448,27.5,42,27.5z M40,30.5c0.552,0,1,0.448,1,1s-0.448,1-1,1s-1-0.448-1-1S39.448,30.5,40,30.5z M38,27.5   c0.552,0,1,0.448,1,1s-0.448,1-1,1s-1-0.448-1-1S37.448,27.5,38,27.5z M36,30.5c0.552,0,1,0.448,1,1s-0.448,1-1,1s-1-0.448-1-1   S35.448,30.5,36,30.5z M34,27.5c0.552,0,1,0.448,1,1s-0.448,1-1,1s-1-0.448-1-1S33.448,27.5,34,27.5z M10.5,25.5   c2.481,0,4.5,2.019,4.5,4.5s-2.019,4.5-4.5,4.5S6,32.481,6,30S8.019,25.5,10.5,25.5z"
   id="path2" />
	<path
   d="M59.165,19.5C59.686,18.76,60,17.865,60,16.892V5.108C60,2.567,57.933,0.5,55.392,0.5H4.608C2.067,0.5,0,2.567,0,5.108   v11.783c0,0.974,0.314,1.868,0.835,2.608H59.165z M52,11.5c0.552,0,1,0.448,1,1s-0.448,1-1,1s-1-0.448-1-1S51.448,11.5,52,11.5z    M50,8.5c0.552,0,1,0.448,1,1s-0.448,1-1,1s-1-0.448-1-1S49.448,8.5,50,8.5z M48,11.5c0.552,0,1,0.448,1,1s-0.448,1-1,1   s-1-0.448-1-1S47.448,11.5,48,11.5z M46,8.5c0.552,0,1,0.448,1,1s-0.448,1-1,1s-1-0.448-1-1S45.448,8.5,46,8.5z M44,11.5   c0.552,0,1,0.448,1,1s-0.448,1-1,1s-1-0.448-1-1S43.448,11.5,44,11.5z M42,8.5c0.552,0,1,0.448,1,1s-0.448,1-1,1s-1-0.448-1-1   S41.448,8.5,42,8.5z M40,11.5c0.552,0,1,0.448,1,1s-0.448,1-1,1s-1-0.448-1-1S39.448,11.5,40,11.5z M38,8.5c0.552,0,1,0.448,1,1   s-0.448,1-1,1s-1-0.448-1-1S37.448,8.5,38,8.5z M36,11.5c0.552,0,1,0.448,1,1s-0.448,1-1,1s-1-0.448-1-1S35.448,11.5,36,11.5z    M34,8.5c0.552,0,1,0.448,1,1s-0.448,1-1,1s-1-0.448-1-1S33.448,8.5,34,8.5z M10.5,6.5c2.481,0,4.5,2.019,4.5,4.5   s-2.019,4.5-4.5,4.5S6,13.481,6,11S8.019,6.5,10.5,6.5z"
   id="path4" />
	<path
   d="M0.835,40.5C0.314,41.24,0,42.135,0,43.108v11.783C0,57.433,2.067,59.5,4.608,59.5h50.783c2.541,0,4.608-2.067,4.608-4.608   V43.108c0-0.974-0.314-1.868-0.835-2.608H0.835z M10.5,53.5C8.019,53.5,6,51.481,6,49s2.019-4.5,4.5-4.5S15,46.519,15,49   S12.981,53.5,10.5,53.5z M34,48.5c-0.552,0-1-0.448-1-1s0.448-1,1-1s1,0.448,1,1S34.552,48.5,34,48.5z M36,51.5   c-0.552,0-1-0.448-1-1s0.448-1,1-1s1,0.448,1,1S36.552,51.5,36,51.5z M38,48.5c-0.552,0-1-0.448-1-1s0.448-1,1-1s1,0.448,1,1   S38.552,48.5,38,48.5z M40,51.5c-0.552,0-1-0.448-1-1s0.448-1,1-1s1,0.448,1,1S40.552,51.5,40,51.5z M42,48.5c-0.552,0-1-0.448-1-1   s0.448-1,1-1s1,0.448,1,1S42.552,48.5,42,48.5z M44,51.5c-0.552,0-1-0.448-1-1s0.448-1,1-1s1,0.448,1,1S44.552,51.5,44,51.5z    M46,48.5c-0.552,0-1-0.448-1-1s0.448-1,1-1s1,0.448,1,1S46.552,48.5,46,48.5z M48,51.5c-0.552,0-1-0.448-1-1s0.448-1,1-1   s1,0.448,1,1S48.552,51.5,48,51.5z M50,48.5c-0.552,0-1-0.448-1-1s0.448-1,1-1s1,0.448,1,1S50.552,48.5,50,48.5z M52,51.5   c-0.552,0-1-0.448-1-1s0.448-1,1-1s1,0.448,1,1S52.552,51.5,52,51.5z"
   id="path6" />
</g>
<g
   id="g10">
</g>
<g
   id="g12">
</g>
<g
   id="g14">
</g>
<g
   id="g16">
</g>
<g
   id="g18">
</g>
<g
   id="g20">
</g>
<g
   id="g22">
</g>
<g
   id="g24">
</g>
<g
   id="g26">
</g>
<g
   id="g28">
</g>
<g
   id="g30">
</g>
<g
   id="g32">
</g>
<g
   id="g34">
</g>
<g
   id="g36">
</g>
<g
   id="g38">
</g>
<path
   style="fill:#ffffff;stroke-width:0.25423729"
   d="M 0.54042714,18.622795 C 0.22074419,18.004596 0.15254237,16.661738 0.15254237,10.985548 c 0,-6.3529602 0.0388895,-6.9633903 0.50138141,-7.8699494 C 1.2672468,1.9133862 2.196182,1.1532312 3.471737,0.80975992 4.107017,0.6386968 13.369216,0.57329354 30.597041,0.61821976 l 26.160623,0.0682209 1.031046,0.68237704 c 0.621013,0.4110053 1.245506,1.1253965 1.57032,1.7963707 0.507501,1.0483556 0.539275,1.5067147 0.539275,7.7791786 0,5.245147 -0.07849,6.853026 -0.368382,7.54685 l -0.368385,0.881664 H 30.044926 0.92831194 Z M 12.72977,14.979234 C 15.959794,13.149808 15.896614,8.6352163 12.617807,6.9788136 10.758134,6.0393361 8.8697898,6.2769971 7.4391671,7.6305808 6.3792849,8.6333883 6,9.5244511 6,11.011648 c 0,3.50584 3.6968761,5.685361 6.72977,3.967586 z m 24.160061,-2.470759 c 0,-0.847458 -0.04237,-0.889831 -0.889831,-0.889831 -0.737537,0 -0.904149,0.101067 -0.973495,0.590524 -0.143969,1.016161 0.133198,1.355873 1.035305,1.268935 0.761619,-0.0734 0.828021,-0.151157 0.828021,-0.969628 z m 4.040852,0.444915 c 0.381132,-0.608698 -0.08364,-1.311345 -0.934988,-1.413542 -0.845517,-0.101497 -1.355148,0.710448 -0.936694,1.492338 0.340162,0.635597 1.453726,0.588717 1.871682,-0.0788 z m 4.067797,0 c 0.36195,-0.578063 -0.06737,-1.303321 -0.839286,-1.417822 -1.057775,-0.156902 -1.706858,0.967615 -0.978775,1.695697 0.428466,0.428466 1.476045,0.268352 1.818061,-0.277875 z m 3.967622,0.06356 c 0.193345,-0.361268 0.193345,-0.655681 0,-1.016949 -0.480257,-0.897369 -2.033899,-0.508959 -2.033899,0.508475 0,1.017433 1.553642,1.405844 2.033899,0.508474 z m 3.801945,0.141113 c 0.167685,-0.20205 0.267499,-0.631075 0.221807,-0.95339 -0.06867,-0.484431 -0.23734,-0.586028 -0.972905,-0.586028 -0.737537,0 -0.904149,0.101067 -0.973495,0.590524 -0.04602,0.324788 -0.021,0.753813 0.05558,0.953389 0.180816,0.471196 1.276675,0.468244 1.669014,-0.0045 z M 34.934339,9.3771763 C 34.874024,8.7545586 34.720708,8.5486271 34.269905,8.484721 33.01648,8.3070351 32.3661,10.016561 33.521186,10.452727 c 0.900234,0.339932 1.505639,-0.120843 1.413153,-1.0755507 z m 4.072464,0.356581 c 0.115549,-0.7766072 -0.424426,-1.3331545 -1.205379,-1.2423737 -0.517157,0.060116 -0.675565,0.2364086 -0.742727,0.8265874 -0.05534,0.4863 0.06518,0.860258 0.342626,1.063132 0.582346,0.425822 1.500915,0.05545 1.60548,-0.6473457 z M 43.07608,9.6057155 c 0.235334,-1.1877783 -1.540564,-1.6203058 -2.051202,-0.4995783 -0.268086,0.5883844 -0.233779,0.7216754 0.296207,1.1508308 0.52724,0.426934 0.663882,0.442638 1.134925,0.130436 0.294534,-0.195215 0.573565,-0.5469746 0.62007,-0.7816885 z m 4.01718,0.236503 C 47.488241,8.8129136 45.869575,7.9580624 45.155283,8.8187324 44.745214,9.3128362 45.027064,10.408707 45.597631,10.538634 46.14572,10.663443 46.915708,10.30491 47.09326,9.8422185 Z m 3.414979,0.6234125 C 50.823575,10.296869 51,9.9337635 51,9.4535258 51,8.8656737 50.862592,8.6701157 50.361104,8.5442504 c -0.366435,-0.09197 -0.800115,-0.026549 -1.016949,0.1534048 -0.515344,0.4276993 -0.476817,1.4398928 0.06686,1.7565568 0.558203,0.325124 0.51196,0.324642 1.097222,0.01142 z"
   id="path3750"
   inkscape:connector-curvature="0" /><path
   style="fill:#ffffff;stroke-width:0.25423729"
   d="M 0.50969021,37.532124 C -0.01774406,36.269796 0.08641851,22.733487 0.62858764,22.080964 0.94927375,21.695006 3.3320863,21.661017 30.069526,21.661017 h 29.092012 l 0.368385,0.881665 c 0.535235,1.281 0.535235,13.735331 0,15.016331 l -0.368385,0.881665 H 30.025424 0.88930848 Z M 12.546676,34.087843 c 2.686079,-1.300308 3.363895,-4.780965 1.388262,-7.128871 -1.314429,-1.562111 -3.892469,-1.965659 -5.7687392,-0.902998 -2.5069172,1.41984 -2.9603697,5.255843 -0.8537939,7.22271 1.4677663,1.370424 3.4438231,1.6759 5.2342711,0.809159 z M 36.711864,32.288136 C 37.574819,31.425179 36.559988,29.987499 35.491525,30.559322 34.594157,31.03958 34.982565,32.59322 36,32.59322 c 0.223729,0 0.544068,-0.137288 0.711864,-0.305084 z m 4.067797,0 c 0.543397,-0.543396 0.358492,-1.461144 -0.360374,-1.788681 -0.587329,-0.267604 -0.721652,-0.233807 -1.144068,0.287853 -0.581913,0.718633 -0.59176,0.893729 -0.07909,1.406396 0.47581,0.475811 1.16128,0.516687 1.583535,0.09443 z m 4.123785,-0.212994 c 0.534732,-0.999156 -0.245649,-1.970063 -1.311552,-1.631759 -0.597913,0.189771 -0.885305,1.271987 -0.470509,1.771783 0.454057,0.547105 1.456472,0.468342 1.782061,-0.140024 z m 3.917377,0.118562 c 0.512667,-0.512667 0.50282,-0.687763 -0.07909,-1.406396 -0.422416,-0.52166 -0.556739,-0.555457 -1.144068,-0.287853 -0.439607,0.200299 -0.665459,0.50351 -0.665459,0.893399 0,1.1226 1.100299,1.589171 1.88862,0.80085 z m 3.907991,0.09443 c 0.862955,-0.862957 -0.151877,-2.300637 -1.220339,-1.728814 -0.897369,0.480258 -0.508961,2.033898 0.508474,2.033898 0.223729,0 0.544068,-0.137288 0.711865,-0.305084 z m -17.872882,-3.76271 c 0,-0.847458 -0.04237,-0.889831 -0.88983,-0.889831 -0.735565,0 -0.904233,0.101598 -0.972905,0.586028 -0.113906,0.803509 0.415967,1.36181 1.205379,1.270046 0.567219,-0.06593 0.657356,-0.198429 0.657356,-0.966243 z m 3.929065,0.649587 c 0.167684,-0.20205 0.267498,-0.631075 0.221806,-0.95339 -0.06867,-0.48443 -0.23734,-0.586028 -0.972905,-0.586028 -0.737537,0 -0.904149,0.101067 -0.973495,0.590524 -0.04602,0.324788 -0.021,0.753813 0.05558,0.95339 0.180816,0.471195 1.276676,0.468243 1.669015,-0.0045 z m 4.179584,-0.204672 c 0.36195,-0.578063 -0.06737,-1.303321 -0.839285,-1.417821 -1.057775,-0.156903 -1.706858,0.967614 -0.978776,1.695696 0.428466,0.428466 1.476046,0.268353 1.818061,-0.277875 z m 3.967622,0.06356 c 0.193345,-0.361268 0.193345,-0.65568 0,-1.016949 -0.480256,-0.897369 -2.033898,-0.508959 -2.033898,0.508475 0,1.017433 1.553642,1.405844 2.033898,0.508474 z m 3.940678,-0.508474 c 0,-0.847458 -0.04237,-0.889831 -0.88983,-0.889831 -0.735565,0 -0.904233,0.101598 -0.972905,0.586028 -0.113906,0.803509 0.415968,1.36181 1.205379,1.270046 0.567219,-0.06593 0.657356,-0.198429 0.657356,-0.966243 z"
   id="path3752"
   inkscape:connector-curvature="0" /><path
   style="fill:#ffffff;stroke-width:0.25423729"
   d="M 2.2720769,58.648892 C 1.5840227,58.236467 1.0279892,57.630945 0.68309382,56.918486 0.18604823,55.891727 0.15254237,55.396471 0.15254237,49.076313 c 0,-4.242532 0.10358334,-7.043339 0.27910808,-7.546849 l 0.2791081,-0.80065 H 29.936148 59.161538 l 0.368385,0.881664 c 0.288732,0.691033 0.368382,2.271806 0.368382,7.311001 0,3.536135 -0.112154,6.820392 -0.249229,7.298349 -0.280078,0.976575 -1.313636,2.171321 -2.344078,2.709649 -0.578298,0.302117 -4.886893,0.35828 -27.330508,0.356254 L 3.3305085,59.283325 Z M 12.573298,53.074747 C 14.488243,52.074121 15.508526,49.78394 14.91778,47.812203 13.823056,44.158342 9.1354635,43.22814 6.8588095,46.212987 6.0533186,47.26904 5.7690506,49.301057 6.2309944,50.70076 c 0.7958812,2.411544 3.9855566,3.605471 6.3423036,2.373987 z m 24.1778,-1.781092 c 0.723117,-0.871302 -0.274202,-2.34424 -1.196013,-1.76639 -0.907205,0.568694 -0.580869,2.133752 0.444915,2.133752 0.245418,0 0.583411,-0.165313 0.751098,-0.367362 z m 3.841887,0.10418 c 0.583238,-0.312139 0.648333,-1.324276 0.113707,-1.767976 -0.212206,-0.176115 -0.650898,-0.245278 -1.000004,-0.157658 -0.826841,0.207523 -1.085471,1.065141 -0.512235,1.698561 0.507547,0.560831 0.712668,0.594136 1.398532,0.227073 z m 4.160041,-0.136334 c 0.219735,-0.219733 0.399516,-0.554782 0.399516,-0.744552 0,-0.499911 -0.720917,-1.144068 -1.2804,-1.144068 -0.453895,0 -1.007735,0.679467 -1.007735,1.236313 0,0.368878 0.742838,1.051823 1.144068,1.051823 0.18977,0 0.524819,-0.179782 0.744551,-0.399516 z m 4.115777,-0.247869 c 0.657462,-0.99201 -0.790099,-2.177081 -1.631515,-1.335666 -0.449451,0.44945 -0.370952,1.410439 0.139831,1.711866 0.60978,0.359847 1.082951,0.240515 1.491684,-0.3762 z m 3.899244,0.280023 c 0.723117,-0.871302 -0.274202,-2.34424 -1.196013,-1.76639 -0.907205,0.568694 -0.580869,2.133752 0.444915,2.133752 0.245418,0 0.583411,-0.165313 0.751098,-0.367362 z m -18.090081,-2.98857 c 0.4254,-0.425401 0.380769,-1.349504 -0.0838,-1.735062 -0.297359,-0.246785 -0.536708,-0.255394 -1.016949,-0.03658 -1.019517,0.464523 -0.717618,2.076727 0.388884,2.076727 0.223729,0 0.544067,-0.137288 0.711864,-0.305084 z m 4.067797,0 c 0.480752,-0.480753 0.359209,-1.427719 -0.223256,-1.739446 -0.636544,-0.340668 -1.128376,-0.185663 -1.476837,0.465439 -0.527148,0.984989 0.911227,2.062873 1.700093,1.274007 z m 4.067796,0 c 0.624895,-0.624894 0.05029,-1.983051 -0.838983,-1.983051 -0.445144,0 -1.144068,0.698923 -1.144068,1.144068 0,0.889272 1.358156,1.463877 1.983051,0.838983 z m 3.973366,-0.09443 c 0.533941,-0.533941 0.503372,-0.953113 -0.109991,-1.508199 -1.034542,-0.936248 -2.461002,0.615172 -1.473544,1.60263 0.422255,0.422256 1.107724,0.381379 1.583535,-0.09443 z m 3.90799,0.09443 c 0.4254,-0.425401 0.380769,-1.349504 -0.0838,-1.735062 -0.297358,-0.246785 -0.536708,-0.255394 -1.016949,-0.03658 -1.019517,0.464523 -0.717618,2.076727 0.388884,2.076727 0.223729,0 0.544068,-0.137288 0.711864,-0.305084 z"
   id="path3754"
   inkscape:connector-curvature="0" /></svg>