<?xml version="1.0" encoding="UTF-8" standalone="no"?>
<!-- Generator: Adobe Illustrator 18.0.0, SVG Export Plug-In . SVG Version: 6.00 Build 0)  -->

<svg
   xmlns:dc="http://purl.org/dc/elements/1.1/"
   xmlns:cc="http://creativecommons.org/ns#"
   xmlns:rdf="http://www.w3.org/1999/02/22-rdf-syntax-ns#"
   xmlns:svg="http://www.w3.org/2000/svg"
   xmlns="http://www.w3.org/2000/svg"
   xmlns:sodipodi="http://sodipodi.sourceforge.net/DTD/sodipodi-0.dtd"
   xmlns:inkscape="http://www.inkscape.org/namespaces/inkscape"
   version="1.1"
   id="Capa_1"
   x="0px"
   y="0px"
   viewBox="0 0 60 60"
   style="enable-background:new 0 0 60 60;"
   xml:space="preserve"
   sodipodi:docname="server-started.svg"
   inkscape:version="0.92.4 5da689c313, 2019-01-14"><metadata
   id="metadata47"><rdf:RDF><cc:Work
       rdf:about=""><dc:format>image/svg+xml</dc:format><dc:type
         rdf:resource="http://purl.org/dc/dcmitype/StillImage" /></cc:Work></rdf:RDF></metadata><defs
   id="defs45" /><sodipodi:namedview
   pagecolor="#ffffff"
   bordercolor="#666666"
   borderopacity="1"
   objecttolerance="10"
   gridtolerance="10"
   guidetolerance="10"
   inkscape:pageopacity="0"
   inkscape:pageshadow="2"
   inkscape:window-width="1872"
   inkscape:window-height="1024"
   id="namedview43"
   showgrid="false"
   inkscape:zoom="3.9333333"
   inkscape:cx="30"
   inkscape:cy="30"
   inkscape:window-x="48"
   inkscape:window-y="28"
   inkscape:window-maximized="1"
   inkscape:current-layer="Capa_1" />
<g
   id="g10">
	<path
   d="M55.849,47.834c-0.429-4.107-3.852-7.332-7.953-7.332c-2.564,0-4.984,1.286-6.48,3.402   c-0.291-0.051-0.586-0.076-0.883-0.076c-2.32,0-4.381,1.577-5.066,3.813c-1.907,1.131-3.116,3.241-3.116,5.502   c0,3.507,2.785,6.359,6.208,6.359h10.774c0.06,0,0.118-0.004,0.171-0.008c0.062,0.004,0.124,0.008,0.188,0.008h4.31   c3.225,0,5.849-2.687,5.849-5.989C59.85,50.913,58.208,48.64,55.849,47.834z M54.001,57.502l-4.352-0.003l-0.17-0.006   l-10.922,0.009c-2.32,0-4.208-1.956-4.208-4.359c0-1.665,0.949-3.21,2.417-3.935l0.435-0.214l0.102-0.475   c0.331-1.56,1.689-2.691,3.229-2.691c0.345,0,0.688,0.057,1.02,0.168l0.777,0.261l0.408-0.711c1.096-1.906,3.024-3.044,5.158-3.044   c3.265,0,5.955,2.747,5.998,6.123l0.011,0.813l0.799,0.155c1.823,0.354,3.146,2.002,3.146,3.919   C57.85,55.712,56.123,57.502,54.001,57.502z"
   id="path2" />
	<path
   d="M0.835,21.498C0.314,22.238,0,23.133,0,24.106V35.89c0,0.974,0.314,1.868,0.835,2.608h42.569   c1.403-0.643,2.93-0.996,4.491-0.996c1.577,0,3.097,0.357,4.481,0.996h6.788C59.686,37.758,60,36.863,60,35.89V24.106   c0-0.974-0.314-1.868-0.835-2.608H0.835z M10.5,34.498c-2.481,0-4.5-2.019-4.5-4.5s2.019-4.5,4.5-4.5s4.5,2.019,4.5,4.5   S12.981,34.498,10.5,34.498z M34,29.498c-0.552,0-1-0.448-1-1s0.448-1,1-1s1,0.448,1,1S34.552,29.498,34,29.498z M38,29.498   c-0.552,0-1-0.448-1-1s0.448-1,1-1s1,0.448,1,1S38.552,29.498,38,29.498z M42,29.498c-0.552,0-1-0.448-1-1s0.448-1,1-1s1,0.448,1,1   S42.552,29.498,42,29.498z M46,29.498c-0.552,0-1-0.448-1-1s0.448-1,1-1s1,0.448,1,1S46.552,29.498,46,29.498z M50,29.498   c-0.552,0-1-0.448-1-1s0.448-1,1-1s1,0.448,1,1S50.552,29.498,50,29.498z"
   id="path4" />
	<path
   d="M55.392,0.498H4.608C2.067,0.498,0,2.565,0,5.106V16.89c0,0.974,0.314,1.868,0.835,2.608h58.329   C59.686,18.758,60,17.863,60,16.89V5.106C60,2.565,57.933,0.498,55.392,0.498z M10.5,15.498c-2.481,0-4.5-2.019-4.5-4.5   s2.019-4.5,4.5-4.5s4.5,2.019,4.5,4.5S12.981,15.498,10.5,15.498z M34,10.498c-0.552,0-1-0.448-1-1s0.448-1,1-1s1,0.448,1,1   S34.552,10.498,34,10.498z M36,13.498c-0.552,0-1-0.448-1-1s0.448-1,1-1s1,0.448,1,1S36.552,13.498,36,13.498z M38,10.498   c-0.552,0-1-0.448-1-1s0.448-1,1-1s1,0.448,1,1S38.552,10.498,38,10.498z M40,13.498c-0.552,0-1-0.448-1-1s0.448-1,1-1s1,0.448,1,1   S40.552,13.498,40,13.498z M42,10.498c-0.552,0-1-0.448-1-1s0.448-1,1-1s1,0.448,1,1S42.552,10.498,42,10.498z M44,13.498   c-0.552,0-1-0.448-1-1s0.448-1,1-1s1,0.448,1,1S44.552,13.498,44,13.498z M46,10.498c-0.552,0-1-0.448-1-1s0.448-1,1-1s1,0.448,1,1   S46.552,10.498,46,10.498z M48,13.498c-0.552,0-1-0.448-1-1s0.448-1,1-1s1,0.448,1,1S48.552,13.498,48,13.498z M50,10.498   c-0.552,0-1-0.448-1-1s0.448-1,1-1s1,0.448,1,1S50.552,10.498,50,10.498z M52,13.498c-0.552,0-1-0.448-1-1s0.448-1,1-1s1,0.448,1,1   S52.552,13.498,52,13.498z"
   id="path6" />
	<path
   d="M33.008,45.691c1.305-2.82,4.02-4.68,7.063-4.851c0.117-0.121,0.246-0.228,0.368-0.343H0.835   C0.314,41.238,0,42.133,0,43.106V54.89c0,2.541,2.067,4.608,4.608,4.608h27.209c-1.526-1.671-2.468-3.901-2.468-6.355   C29.35,50.229,30.712,47.465,33.008,45.691z M10.5,53.498c-2.481,0-4.5-2.019-4.5-4.5s2.019-4.5,4.5-4.5s4.5,2.019,4.5,4.5   S12.981,53.498,10.5,53.498z"
   id="path8" />
</g>
<g
   id="g12">
</g>
<g
   id="g14">
</g>
<g
   id="g16">
</g>
<g
   id="g18">
</g>
<g
   id="g20">
</g>
<g
   id="g22">
</g>
<g
   id="g24">
</g>
<g
   id="g26">
</g>
<g
   id="g28">
</g>
<g
   id="g30">
</g>
<g
   id="g32">
</g>
<g
   id="g34">
</g>
<g
   id="g36">
</g>
<g
   id="g38">
</g>
<g
   id="g40">
</g>
<path
   style="fill:#ffffff;stroke:#ffffff;stroke-width:0.25423729"
   d="M 0.54042714,18.622795 C 0.22074419,18.004596 0.15254237,16.661738 0.15254237,10.985548 c 0,-6.3529602 0.0388895,-6.9633903 0.50138141,-7.8699494 C 1.2552694,1.9368639 2.1839875,1.1620632 3.4284913,0.80086327 4.0511097,0.6201569 12.79807,0.55870198 30.552562,0.61029336 l 26.205102,0.0761473 1.031046,0.68237704 c 0.621013,0.4110053 1.245506,1.1253965 1.57032,1.7963707 0.507501,1.0483556 0.539275,1.5067147 0.539275,7.7791786 0,5.245147 -0.07849,6.853026 -0.368382,7.54685 l -0.368385,0.881664 H 30.044926 0.92831194 Z M 12.72977,14.979234 C 15.959794,13.149808 15.896614,8.6352163 12.617807,6.9788136 10.758134,6.0393361 8.8697898,6.2769971 7.4391671,7.6305808 6.3792849,8.6333883 6,9.5244511 6,11.011648 c 0,3.50584 3.6968761,5.685361 6.72977,3.967586 z m 24.160061,-2.470759 c 0,-0.847458 -0.04237,-0.889831 -0.889831,-0.889831 -0.737537,0 -0.904149,0.101067 -0.973495,0.590524 -0.143969,1.016161 0.133198,1.355873 1.035305,1.268935 0.761619,-0.0734 0.828021,-0.151157 0.828021,-0.969628 z m 4.040852,0.444915 c 0.381132,-0.608698 -0.08364,-1.311345 -0.934988,-1.413542 -0.845517,-0.101497 -1.355148,0.710448 -0.936694,1.492338 0.340162,0.635597 1.453726,0.588717 1.871682,-0.0788 z m 4.067797,0 c 0.36195,-0.578063 -0.06737,-1.303321 -0.839286,-1.417822 -1.057775,-0.156902 -1.706858,0.967615 -0.978775,1.695697 0.428466,0.428466 1.476045,0.268352 1.818061,-0.277875 z m 3.967622,0.06356 c 0.193345,-0.361268 0.193345,-0.655681 0,-1.016949 -0.480257,-0.897369 -2.033899,-0.508959 -2.033899,0.508475 0,1.017433 1.553642,1.405844 2.033899,0.508474 z m 3.801945,0.141113 c 0.167685,-0.20205 0.267499,-0.631075 0.221807,-0.95339 -0.06867,-0.484431 -0.23734,-0.586028 -0.972905,-0.586028 -0.737537,0 -0.904149,0.101067 -0.973495,0.590524 -0.04602,0.324788 -0.021,0.753813 0.05558,0.953389 0.180816,0.471196 1.276675,0.468244 1.669014,-0.0045 z M 34.934339,9.3771763 C 34.874024,8.7545586 34.720708,8.5486271 34.269905,8.484721 33.01648,8.3070351 32.3661,10.016561 33.521186,10.452727 c 0.900234,0.339932 1.505639,-0.120843 1.413153,-1.0755507 z m 4.072464,0.356581 c 0.115549,-0.7766072 -0.424426,-1.3331545 -1.205379,-1.2423737 -0.517157,0.060116 -0.675565,0.2364086 -0.742727,0.8265874 -0.05534,0.4863 0.06518,0.860258 0.342626,1.063132 0.582346,0.425822 1.500915,0.05545 1.60548,-0.6473457 z M 43.07608,9.6057155 c 0.235334,-1.1877783 -1.540564,-1.6203058 -2.051202,-0.4995783 -0.268086,0.5883844 -0.233779,0.7216754 0.296207,1.1508308 0.52724,0.426934 0.663882,0.442638 1.134925,0.130436 0.294534,-0.195215 0.573565,-0.5469746 0.62007,-0.7816885 z m 4.01718,0.236503 C 47.488241,8.8129136 45.869575,7.9580624 45.155283,8.8187324 44.745214,9.3128362 45.027064,10.408707 45.597631,10.538634 46.14572,10.663443 46.915708,10.30491 47.09326,9.8422185 Z M 51,9.4535258 c 0,-0.5878521 -0.137408,-0.7834101 -0.638896,-0.9092754 -0.795068,-0.1995496 -1.395002,0.2648367 -1.395002,1.079818 0,0.4018546 0.196825,0.6869776 0.572034,0.8286586 C 50.372558,10.767808 51,10.338943 51,9.4535258 Z"
   id="path49"
   inkscape:connector-curvature="0" /><path
   style="fill:#ffffff;stroke:#ffffff;stroke-width:0.25423729"
   d="M 0.50969021,37.532124 C -0.01774406,36.269796 0.08641851,22.733487 0.62858764,22.080964 0.94927375,21.695006 3.3320863,21.661017 30.069526,21.661017 h 29.092012 l 0.368385,0.881665 c 0.535235,1.281 0.535235,13.735331 0,15.016331 l -0.368385,0.881665 h -3.215031 c -2.555062,0 -3.581784,-0.111398 -5.001666,-0.542674 -2.063461,-0.626757 -4.97472,-0.568468 -6.654117,0.133229 -0.874363,0.365333 -3.265114,0.409445 -22.190678,0.409445 H 0.88930848 Z M 12.546676,34.087843 c 2.686079,-1.300308 3.363895,-4.780965 1.388262,-7.128871 -1.314429,-1.562111 -3.892469,-1.965659 -5.7687392,-0.902998 -2.5069172,1.41984 -2.9603697,5.255843 -0.8537939,7.22271 1.4677663,1.370424 3.4438231,1.6759 5.2342711,0.809159 z m 22.309256,-5.562419 c 0,-0.847458 -0.04237,-0.889831 -0.88983,-0.889831 -0.735565,0 -0.904233,0.101598 -0.972905,0.586028 -0.113906,0.803509 0.415967,1.36181 1.205379,1.270046 0.567219,-0.06593 0.657356,-0.198429 0.657356,-0.966243 z m 3.929065,0.649587 c 0.167684,-0.20205 0.267498,-0.631075 0.221806,-0.95339 -0.06867,-0.48443 -0.23734,-0.586028 -0.972905,-0.586028 -0.737537,0 -0.904149,0.101067 -0.973495,0.590524 -0.04602,0.324788 -0.021,0.753813 0.05558,0.95339 0.180816,0.471195 1.276676,0.468243 1.669015,-0.0045 z m 4.179584,-0.204672 c 0.36195,-0.578063 -0.06737,-1.303321 -0.839285,-1.417821 -1.057775,-0.156903 -1.706858,0.967614 -0.978776,1.695696 0.428466,0.428466 1.476046,0.268353 1.818061,-0.277875 z m 3.967622,0.06356 c 0.193345,-0.361268 0.193345,-0.65568 0,-1.016949 -0.480256,-0.897369 -2.033898,-0.508959 -2.033898,0.508475 0,1.017433 1.553642,1.405844 2.033898,0.508474 z m 3.940678,-0.508474 c 0,-0.847458 -0.04237,-0.889831 -0.88983,-0.889831 -0.735565,0 -0.904233,0.101598 -0.972905,0.586028 -0.113906,0.803509 0.415968,1.36181 1.205379,1.270046 0.567219,-0.06593 0.657356,-0.198429 0.657356,-0.966243 z"
   id="path51"
   inkscape:connector-curvature="0" /><path
   style="fill:#ffffff;stroke:#ffffff;stroke-width:0.25423729"
   d="M 2.2720769,58.648892 C 1.5840227,58.236467 1.0279892,57.630945 0.68309382,56.918486 0.18604823,55.891727 0.15254237,55.396471 0.15254237,49.076313 c 0,-4.242532 0.10358334,-7.043339 0.27910808,-7.546849 l 0.2791081,-0.80065 19.23360345,0.0083 c 18.790931,0.0081 19.203368,0.01875 17.91982,0.462311 -1.513795,0.52313 -2.738565,1.392802 -3.793357,2.693551 -0.407174,0.50212 -1.280767,1.538006 -1.941316,2.301969 -0.660551,0.763963 -1.48544,1.950337 -1.833086,2.636387 -1.52806,3.015477 -1.266801,7.045968 0.629331,9.70884 l 0.532599,0.747965 -14.063922,-0.0024 -14.0639225,-0.0024 z M 12.573298,53.074747 C 14.488243,52.074121 15.508526,49.78394 14.91778,47.812203 13.823056,44.158342 9.1354635,43.22814 6.8588095,46.212987 6.0533186,47.26904 5.7690506,49.301057 6.2309944,50.70076 c 0.7958812,2.411544 3.9855566,3.605471 6.3423036,2.373987 z"
   id="path53"
   inkscape:connector-curvature="0" /><path
   style="fill:#ffffff;stroke:#ffffff;stroke-width:0.25423729"
   d="m 36.254237,58.888087 c -0.489406,-0.214232 -1.271678,-0.755293 -1.73838,-1.202359 -2.679625,-2.566879 -2.69495,-6.397676 -0.03623,-9.056396 0.696375,-0.696375 1.266136,-1.359924 1.266136,-1.474553 0,-0.470829 1.641642,-2.152888 2.556836,-2.619785 0.540226,-0.275602 1.457802,-0.501096 2.039058,-0.501096 0.902555,0 1.203873,-0.151519 2.064136,-1.037962 2.06298,-2.125759 5.27879,-2.845037 8.231121,-1.841047 2.299872,0.782109 4.411249,3.38638 5.039107,6.21547 0.09477,0.427032 0.423984,0.781277 0.915135,0.984718 0.919541,0.380887 2.220674,1.806256 2.703361,2.961488 0.962364,2.303267 -0.04029,5.585813 -2.161798,7.077399 l -1.090992,0.767053 -9.44883,0.05829 c -8.020085,0.04948 -9.583379,-6.07e-4 -10.33866,-0.331221 z M 56.02351,57.001373 c 0.455727,-0.27786 1.055935,-0.878068 1.333795,-1.333795 0.606875,-0.995352 0.672915,-2.948454 0.134878,-3.988903 -0.493825,-0.95495 -1.728004,-1.969884 -2.638631,-2.169891 -0.659558,-0.144863 -0.749968,-0.288642 -0.881883,-1.402456 -0.395619,-3.340383 -2.868286,-5.580357 -6.173207,-5.59227 -1.952757,-0.007 -3.452064,0.7352 -4.649827,2.301918 -0.849264,1.110868 -0.876455,1.123642 -2.21067,1.038554 -1.767588,-0.112726 -2.758667,0.461928 -3.470447,2.012262 -0.295258,0.643104 -0.854176,1.34708 -1.249757,1.574113 -1.987042,1.140405 -2.562361,4.250307 -1.164961,6.297223 1.195042,1.750501 1.321799,1.770455 11.239844,1.769396 8.43464,-8.9e-4 8.945797,-0.02749 9.730866,-0.506151 z"
   id="path55"
   inkscape:connector-curvature="0" /></svg>